<?xml version="1.0" encoding="UTF-8" standalone="no"?>
<svg
   xmlns:dc="http://purl.org/dc/elements/1.1/"
   xmlns:cc="http://creativecommons.org/ns#"
   xmlns:rdf="http://www.w3.org/1999/02/22-rdf-syntax-ns#"
   xmlns:svg="http://www.w3.org/2000/svg"
   xmlns="http://www.w3.org/2000/svg"
   xmlns:sodipodi="http://sodipodi.sourceforge.net/DTD/sodipodi-0.dtd"
   xmlns:inkscape="http://www.inkscape.org/namespaces/inkscape"
   inkscape:export-ydpi="120.34"
   inkscape:export-xdpi="120.34"
   inkscape:export-filename="/Users/jonathanslate/gbls-dark.png"
   width="132.93973mm"
   height="49.060318mm"
   viewBox="0 0 132.93973 49.060318"
   version="1.1"
   id="svg8"
   inkscape:version="1.0beta1 (32d4812, 2019-09-19)"
   sodipodi:docname="gbls-transparent.svg">
  <defs
     id="defs2">
    <clipPath
       clipPathUnits="userSpaceOnUse"
       id="clipPath965">
      <rect
         style="fill:#4c4694;fill-opacity:0.219941;stroke:#4c4694;stroke-width:0;stroke-linecap:round;stroke-linejoin:bevel"
         id="rect967"
         width="8.5825405"
         height="10.832319"
         x="-489.9248"
         y="208.79459" />
    </clipPath>
    <clipPath
       clipPathUnits="userSpaceOnUse"
       id="clipPath973">
      <rect
         style="fill:#4c4694;fill-opacity:0.219941;stroke:#4c4694;stroke-width:0;stroke-linecap:round;stroke-linejoin:bevel"
         id="rect975"
         width="119.94444"
         height="32.332851"
         x="-391.12317"
         y="213.814" />
    </clipPath>
    <clipPath
       clipPathUnits="userSpaceOnUse"
       id="clipPath1013">
      <rect
         style="fill:#ffffff;fill-opacity:0;stroke:#4c4694;stroke-width:0;stroke-linecap:round;stroke-linejoin:bevel"
         id="rect1015"
         width="325.52298"
         height="39.205326"
         x="-809.64935"
         y="292.25787" />
    </clipPath>
    <clipPath
       id="clipPath2332"
       clipPathUnits="userSpaceOnUse">
      <rect
         y="117.65664"
         x="-1008.3314"
         height="295.55161"
         width="282.7886"
         id="rect2334"
         style="fill:#000000;fill-opacity:0.307692;stroke:#fe0000;stroke-width:0.265388;stroke-linecap:round;stroke-linejoin:bevel;stroke-opacity:0.472141" />
    </clipPath>
    <clipPath
       clipPathUnits="userSpaceOnUse"
       id="a">
      <path
         inkscape:connector-curvature="0"
         id="path1493"
         d="M 0,0 H 10 V 10 H 0 Z" />
    </clipPath>
    <clipPath
       clipPathUnits="userSpaceOnUse"
       id="clipPath20">
      <path
         inkscape:connector-curvature="0"
         d="M 0,0 H 10 V 10 H 0 Z"
         id="path18" />
    </clipPath>
  </defs>
  <sodipodi:namedview
     fit-margin-bottom="0"
     fit-margin-right="0"
     fit-margin-left="0"
     fit-margin-top="0"
     id="base"
     pagecolor="#ffffff"
     bordercolor="#666666"
     borderopacity="1.0"
     inkscape:pageopacity="0.0"
     inkscape:pageshadow="2"
     inkscape:zoom="1.9225819"
     inkscape:cx="251.22467"
     inkscape:cy="92.712426"
     inkscape:document-units="mm"
     inkscape:current-layer="layer1"
     inkscape:document-rotation="0"
     showgrid="false"
     inkscape:snap-global="false"
     inkscape:window-width="1600"
     inkscape:window-height="907"
     inkscape:window-x="0"
     inkscape:window-y="25"
     inkscape:window-maximized="0"
     showguides="true"
     inkscape:guide-bbox="true" />
  <metadata
     id="metadata5">
    <rdf:RDF>
      <cc:Work
         rdf:about="">
        <dc:format>image/svg+xml</dc:format>
        <dc:type
           rdf:resource="http://purl.org/dc/dcmitype/StillImage" />
        <dc:title></dc:title>
      </cc:Work>
    </rdf:RDF>
  </metadata>
  <g
     transform="translate(-110.05931,-238.57455)"
     inkscape:label="Layer 1"
     inkscape:groupmode="layer"
     id="layer1">
    <path
       inkscape:connector-curvature="0"
       id="path1624"
       d="m 228.69378,287.5115 c -0.20273,-0.20272 0.0328,-0.38434 0.2845,-0.21941 0.50587,0.33146 0.6728,-0.0372 0.88063,-1.94468 0.14082,-1.29256 0.14099,-1.2863 -0.0358,-1.2863 -0.0802,0 -0.14572,-0.0328 -0.14572,-0.0729 0,-0.0401 0.082,-0.0729 0.18215,-0.0729 0.14263,0 0.18215,-0.0372 0.18215,-0.17128 0,-0.44402 0.35796,-1.05781 0.72873,-1.24955 0.26887,-0.13904 0.6845,-0.14066 0.79865,-0.003 0.19734,0.23777 -0.13637,0.35278 -0.38107,0.13133 -0.23757,-0.21501 -0.44661,0.14236 -0.59628,1.01939 -0.0454,0.26612 -0.0409,0.27322 0.17525,0.27322 0.12203,0 0.22188,0.0328 0.22188,0.0729 0,0.0401 -0.0984,0.0729 -0.21858,0.0729 -0.12021,0 -0.21958,0.0246 -0.22081,0.0546 -0.029,0.70841 -0.30229,2.45358 -0.42022,2.68295 -0.34424,0.66956 -1.10227,1.04597 -1.43544,0.7128 z m -15.31858,-0.10033 c -0.18437,-0.075 -0.21896,-0.27344 -0.0584,-0.33505 0.058,-0.0223 0.20342,0.0174 0.32308,0.088 0.42324,0.25002 0.59149,-0.0766 0.8064,-1.56553 0.20181,-1.39814 0.19964,-1.49307 -0.0328,-1.43473 -0.10018,0.0251 -0.18215,0.0176 -0.18215,-0.0168 0,-0.0886 0.31845,-0.22261 0.6581,-0.27692 l 0.28907,-0.0462 v 0.25074 c 0,0.41411 -0.21157,1.89047 -0.32888,2.29489 -0.2162,0.74541 -0.94208,1.25823 -1.47438,1.04163 z m -8.59258,-1.1648 c -0.5427,-0.21865 -0.38178,-1.407 0.27031,-1.99612 0.31371,-0.28341 0.67153,-0.40671 1.1821,-0.40731 0.19034,-2.1e-4 0.34608,-0.0332 0.34608,-0.0733 0,-0.0401 0.0514,-0.0729 0.1142,-0.0729 0.0779,0 0.10061,0.0428 0.0715,0.13462 -0.11327,0.35689 -0.25853,1.30826 -0.25853,1.69326 0,0.43294 0.0811,0.53907 0.26864,0.35154 0.057,-0.057 0.0932,-0.0566 0.12915,0.002 0.0621,0.10053 -0.72276,0.47258 -0.87429,0.41443 -0.0726,-0.0279 -0.10637,-0.15079 -0.10637,-0.38757 V 285.558 l -0.23134,0.28066 c -0.18314,0.22217 -0.61422,0.50291 -0.7317,0.47651 -0.0113,-0.002 -0.0922,-0.0335 -0.17972,-0.0688 z m 0.80391,-0.57089 c 0.38957,-0.40663 0.72313,-1.68752 0.43931,-1.68695 -0.449,8.2e-4 -0.89568,0.58009 -0.95542,1.23886 -0.0593,0.65446 0.14687,0.83349 0.51611,0.44809 z m 3.15602,0.54025 c -0.0217,-0.0566 0.007,-0.40886 0.064,-0.78272 0.1436,-0.94336 0.13869,-1.15332 -0.0269,-1.15332 -0.34636,0 -0.88314,1.07025 -0.88614,1.76683 -8.3e-4,0.18025 -0.0265,0.20036 -0.25588,0.20036 -0.14025,0 -0.255,-0.0354 -0.255,-0.0787 0,-0.0433 0.0513,-0.47309 0.11402,-0.95514 0.13148,-1.01064 0.11719,-1.10798 -0.14785,-1.00721 -0.33603,0.12775 -0.20242,-0.0695 0.14916,-0.22018 0.58244,-0.24967 0.63516,-0.22064 0.60008,0.33045 -0.0166,0.26047 -0.0259,0.47358 -0.0208,0.47358 0.005,0 0.11599,-0.16449 0.24626,-0.36553 0.38167,-0.58902 0.89008,-0.75116 1.08383,-0.34566 0.0921,0.19275 0.0587,0.70684 -0.10724,1.65129 -0.0433,0.24646 -0.0422,0.24766 0.19107,0.20101 0.31718,-0.0634 0.26236,0.0934 -0.0726,0.20776 -0.49473,0.1689 -0.63462,0.18487 -0.67595,0.0772 z m 1.51953,-0.0599 c -0.72524,-0.63016 0.20312,-2.30511 1.28126,-2.31167 l 0.26285,-0.002 0.0468,-0.44785 c 0.077,-0.73707 0.0766,-0.73881 -0.17176,-0.70236 -0.12022,0.0177 -0.21858,0.004 -0.21858,-0.03 0,-0.16874 1.01849,-0.36384 1.02234,-0.19584 10e-4,0.0555 -0.10333,0.83079 -0.23245,1.72279 -0.2469,1.70575 -0.24005,1.86692 0.0722,1.69982 0.10103,-0.0541 0.16402,-0.0557 0.19533,-0.005 0.0467,0.0756 -0.4138,0.30564 -0.78418,0.39179 l -0.20036,0.0466 v -0.41646 -0.41647 l -0.21888,0.29763 c -0.19692,0.26777 -0.58962,0.53253 -0.78988,0.53253 -0.0418,0 -0.1609,-0.0738 -0.26467,-0.16394 z m 0.88791,-0.43716 c 0.26726,-0.29228 0.59771,-1.19064 0.60302,-1.63932 0.004,-0.31547 -0.72925,0.0668 -0.94717,0.49392 -0.40985,0.80337 -0.14601,1.68147 0.34415,1.1454 z m 4.90206,0.46945 c -0.18842,-0.15258 -0.20326,-0.42417 -0.0709,-1.2974 0.0978,-0.64521 0.0664,-0.79807 -0.1411,-0.68701 -0.17325,0.0927 -0.22445,0.0955 -0.22445,0.0121 0,-0.0849 0.67684,-0.37327 0.876,-0.37327 0.1398,0 0.15247,0.0297 0.11664,0.27322 -0.21317,1.44933 -0.21498,1.76683 -0.0101,1.76683 0.25886,0 0.83888,-1.10522 0.83888,-1.59847 0,-0.26767 0.0848,-0.36872 0.30938,-0.36872 h 0.22093 l -0.0489,0.38251 c -0.0269,0.21038 -0.0694,0.67452 -0.0945,1.03143 l -0.0456,0.64893 0.2301,-0.046 c 0.36302,-0.0726 0.26861,0.0635 -0.16656,0.24012 -0.50474,0.20486 -0.55003,0.17032 -0.55272,-0.42159 -0.002,-0.3927 -0.0176,-0.45916 -0.0815,-0.34177 -0.22555,0.41477 -0.46347,0.69317 -0.68033,0.79608 -0.29811,0.14146 -0.27877,0.14215 -0.47531,-0.017 z m 2.62363,0.0377 c -0.10018,-0.0505 -0.19262,-0.16477 -0.20543,-0.25393 -0.0343,-0.23911 0.26679,-0.21466 0.47114,0.0383 0.15533,0.19223 0.17023,0.19582 0.36703,0.0886 0.34854,-0.18983 0.30645,-0.3912 -0.18974,-0.90794 -0.45925,-0.47826 -0.49175,-0.55482 -0.37068,-0.87325 0.0831,-0.21853 0.57122,-0.47093 0.91557,-0.4734 0.28391,-0.002 0.50814,0.15634 0.44699,0.31573 -0.063,0.1642 -0.23508,0.15028 -0.40567,-0.0328 -0.18067,-0.19393 -0.42779,-0.12879 -0.49271,0.12989 -0.04,0.15936 0.0176,0.24751 0.40055,0.61306 0.46919,0.44787 0.55262,0.67959 0.36853,1.02357 -0.17495,0.32691 -0.93331,0.51986 -1.30558,0.3322 z m 2.24046,0.0438 c -0.24049,-0.0629 -0.24257,-0.53583 -0.008,-1.9352 0.0373,-0.22271 0.0237,-0.27322 -0.0731,-0.27322 -0.18612,0 -0.13912,-0.12482 0.0664,-0.17641 0.11443,-0.0287 0.26046,-0.17101 0.38198,-0.3722 0.21082,-0.34902 0.40574,-0.43925 0.34947,-0.16176 -0.0183,0.0902 -0.0523,0.25409 -0.0756,0.3643 -0.0399,0.18864 -0.0274,0.20036 0.214,0.20036 0.14102,0 0.2564,0.0328 0.2564,0.0729 0,0.0401 -0.11412,0.0729 -0.25361,0.0729 -0.27884,0 -0.26367,-0.0288 -0.40018,0.76019 -0.17235,0.99617 -0.0659,1.36116 0.32269,1.10654 0.18802,-0.1232 0.32463,-0.0453 0.16008,0.0912 -0.10043,0.0833 -0.68753,0.307 -0.76709,0.29222 -0.025,-0.005 -0.10284,-0.0234 -0.17294,-0.0418 z m 1.50325,-0.055 c -0.0243,-0.0634 0.009,-0.48369 0.0737,-0.93398 0.16659,-1.15625 0.16545,-1.1688 -0.10164,-1.11014 -0.36283,0.0797 -0.24536,-0.0785 0.15409,-0.20751 0.72084,-0.2328 0.73786,-0.20094 0.53907,1.00896 -0.15975,0.97227 -0.15539,1.01083 0.10829,0.95809 0.32618,-0.0652 0.26384,0.07 -0.0911,0.19761 -0.55774,0.20048 -0.63513,0.21034 -0.68247,0.087 z m 1.75714,0.0405 c -0.65074,-0.28505 -0.54434,-1.48791 0.18214,-2.05914 0.48532,-0.3816 1.31146,-0.4642 1.31146,-0.13112 0,0.21811 -0.2015,0.25493 -0.43805,0.08 l -0.20896,-0.1545 -0.21771,0.18318 c -0.48043,0.40427 -0.61125,1.50824 -0.21378,1.80409 0.20358,0.15154 0.28527,0.13816 0.95066,-0.15573 0.0302,-0.0134 0.055,0.005 0.055,0.0412 0,0.23646 -1.08953,0.53704 -1.42074,0.39195 z m 2.18576,-0.004 c -0.61451,-0.25152 -0.58647,-1.44115 0.0476,-2.0173 0.49466,-0.44951 1.37319,-0.54986 1.37319,-0.15686 0,0.0996 0.0346,0.13244 0.10929,0.10378 0.0601,-0.0231 0.10929,-0.0131 0.10929,0.0222 0,0.0934 -0.32958,0.35508 -0.96865,0.76921 -0.53381,0.34593 -0.55989,0.37532 -0.51724,0.58287 0.0983,0.47823 0.49456,0.61102 0.96588,0.32367 0.24827,-0.15136 0.35936,-0.14847 0.26337,0.007 -0.16892,0.27332 -1.04331,0.50454 -1.38269,0.36564 z m 1.01653,-1.80619 c 0.10905,-0.28418 -0.14484,-0.51864 -0.4087,-0.37742 -0.16584,0.0888 -0.42167,0.60193 -0.42408,0.85069 -0.002,0.15877 0.0126,0.15526 0.39397,-0.098 0.21757,-0.14445 0.41504,-0.31334 0.43881,-0.3753 z m 4.15645,1.80619 c -0.80142,-0.32802 -0.45102,-1.97282 0.49654,-2.33083 0.53315,-0.20144 1.07808,-0.0208 1.21823,0.40392 0.34451,1.04387 -0.78131,2.30896 -1.71477,1.92691 z m 0.91225,-0.35032 c 0.45269,-0.57551 0.34021,-1.91229 -0.1609,-1.91229 -0.15367,0 -0.48931,0.4319 -0.57079,0.73449 -0.27126,1.00739 0.23046,1.81501 0.73169,1.1778 z m 4.89908,0.30776 c -0.22377,-0.15674 -0.32262,-0.56574 -0.23319,-0.96482 0.19556,-0.87261 0.83872,-1.40095 1.70541,-1.40095 0.22168,0 0.40307,-0.0328 0.40307,-0.0729 0,-0.0401 0.0449,-0.0729 0.0997,-0.0729 0.0837,0 0.0846,0.065 0.006,0.40452 -0.0517,0.22248 -0.1326,0.70123 -0.17973,1.06388 -0.0935,0.71905 -0.0521,0.86303 0.20779,0.72392 0.10103,-0.0541 0.16402,-0.0557 0.19533,-0.005 0.0505,0.0816 -0.49526,0.34947 -0.77455,0.38014 -0.16115,0.0177 -0.17514,-0.009 -0.19576,-0.36886 l -0.0222,-0.38793 -0.2191,0.30246 c -0.31321,0.43237 -0.71416,0.59332 -0.99247,0.39839 z m 0.91513,-0.588 c 0.22186,-0.26916 0.41105,-0.77515 0.49444,-1.3224 0.042,-0.27592 0.0315,-0.30965 -0.0971,-0.30965 -0.47674,0 -0.96725,0.70368 -0.96725,1.38761 0,0.6039 0.20212,0.69059 0.56988,0.24444 z m 1.68874,0.38346 c 0,-0.18247 0.0634,-0.76798 0.14098,-1.30114 0.0775,-0.53316 0.16417,-1.21149 0.19252,-1.5074 l 0.0516,-0.53802 -0.22896,0.0336 c -0.12593,0.0185 -0.22895,0.006 -0.22895,-0.0284 0,-0.0847 0.32503,-0.20157 0.70531,-0.25369 0.38889,-0.0533 0.38187,-0.18509 0.0996,1.87084 -0.22596,1.64565 -0.21836,1.76404 0.10388,1.61722 0.12139,-0.0553 0.18412,-0.0582 0.18412,-0.009 0,0.0798 -0.48315,0.31419 -0.81967,0.39762 -0.19651,0.0487 -0.20036,0.0433 -0.20036,-0.2821 z m 1.40923,0.20292 c -0.0246,-0.0641 0.0421,-0.74527 0.14816,-1.51361 0.26098,-1.88975 0.25852,-1.9996 -0.0456,-2.03325 l -0.23679,-0.0262 0.18881,-0.0815 c 0.10384,-0.0448 0.34154,-0.10441 0.52823,-0.13241 l 0.33942,-0.0509 -8.3e-4,0.31792 c -8.2e-4,0.17486 -0.0825,0.89136 -0.18215,1.59223 -0.2484,1.7472 -0.24481,1.79365 0.12348,1.59655 0.11787,-0.0631 0.14264,-0.0592 0.11746,0.0182 -0.0741,0.22793 -0.91025,0.49494 -0.98008,0.31296 z m -42.2771,-0.0619 c -0.19613,-0.23633 0.0851,-0.59688 0.34012,-0.43603 0.21087,0.13301 0.16856,0.49693 -0.0609,0.5236 -0.10361,0.012 -0.22926,-0.0274 -0.27924,-0.0876 z m 1.38119,-0.0383 c -0.13854,-0.25886 0.10022,-0.51014 0.382,-0.40202 0.28292,0.10857 0.17908,0.54246 -0.12982,0.54246 -0.10023,0 -0.20962,-0.0609 -0.25218,-0.14044 z m 1.40947,0.0354 c -0.10931,-0.28486 0.15735,-0.58034 0.39096,-0.43323 0.27513,0.17327 0.15637,0.53826 -0.17514,0.53826 -0.0965,0 -0.19365,-0.0473 -0.21582,-0.10503 z m 32.00434,-0.49605 c 0.0498,-0.3306 0.0923,-0.80519 0.0945,-1.05465 l 0.004,-0.45357 -0.18215,0.0693 c -0.31663,0.12039 -0.20742,-0.0685 0.12751,-0.22053 0.5866,-0.26627 0.6659,-0.22211 0.61327,0.34148 l -0.0453,0.48524 0.20666,-0.32131 c 0.28924,-0.44971 0.5433,-0.66597 0.74828,-0.63696 0.30452,0.0431 0.22382,0.31129 -0.10179,0.33825 -0.44539,0.0369 -0.84482,0.72619 -0.97072,1.6752 -0.0502,0.37838 -0.0504,0.37868 -0.31746,0.37868 h -0.26724 z m -19.16467,-2.42784 c -0.10266,-0.26753 0.2893,-0.57193 0.50545,-0.39254 0.14199,0.11784 0.13324,0.24111 -0.0274,0.38653 -0.16851,0.1525 -0.42058,0.15567 -0.47801,0.006 z m 7.99852,0.011 c -0.10772,-0.28071 0.32843,-0.59069 0.53728,-0.38184 0.1013,0.1013 0.10033,0.13083 -0.01,0.29892 -0.13483,0.20577 -0.46067,0.257 -0.52747,0.0829 z m -47.02251,-5.67857 c -0.86515,-0.19696 -1.54394,-0.78377 -1.78197,-1.54053 -0.17432,-0.5542 -0.12795,-1.59828 0.0931,-2.09496 0.55466,-1.24661 2.08772,-1.83526 3.38724,-1.30058 0.31692,0.1304 0.44416,0.15328 0.50637,0.0911 0.21361,-0.21361 0.27252,-0.0898 0.27252,0.57265 0,0.77458 -0.089,0.84133 -0.3643,0.27322 -0.62535,-1.29054 -2.32366,-1.18354 -2.91754,0.18382 -0.22614,0.52068 -0.28453,1.6722 -0.11444,2.25726 0.3152,1.08425 1.3853,1.66003 2.34216,1.26023 l 0.25267,-0.10557 v -0.53624 c 0,-0.66569 -0.0705,-0.76967 -0.54075,-0.79771 -0.20556,-0.0122 -0.37139,-0.0602 -0.38858,-0.11245 -0.0232,-0.0704 0.24425,-0.0911 1.17826,-0.0911 1.02542,0 1.20825,0.0165 1.20825,0.10929 0,0.0761 -0.0766,0.10929 -0.25245,0.10929 -0.32665,0 -0.40328,0.14522 -0.40328,0.76424 v 0.48238 l -0.3898,0.17239 c -0.76421,0.33797 -1.47892,0.44181 -2.08741,0.30328 z m 22.69554,-0.0459 c -0.40673,-0.11509 -0.54318,-0.12728 -0.67383,-0.0602 -0.22534,0.11569 -0.24721,0.0758 -0.35641,-0.65042 -0.16927,-1.12562 -0.1011,-1.33676 0.21181,-0.65608 0.24321,0.52906 0.5024,0.81265 0.94374,1.03258 0.95622,0.4765 2.22279,0.0139 2.36523,-0.86388 0.11676,-0.7195 -0.22861,-1.16266 -1.6093,-2.06494 -1.04993,-0.68613 -1.59308,-1.15648 -1.79694,-1.55608 -0.77361,-1.5164 0.85052,-2.82588 2.79057,-2.24994 0.43788,0.12999 0.57775,0.14556 0.70346,0.0783 0.22976,-0.12296 0.27378,-0.06 0.32801,0.4693 0.0269,0.26276 0.0684,0.57516 0.0922,0.6942 0.069,0.34497 -0.1242,0.26142 -0.39859,-0.17239 -0.66026,-1.04384 -2.10861,-1.26593 -2.69105,-0.41264 -0.46861,0.68651 -0.11939,1.24614 1.3993,2.2424 1.60877,1.05535 2.03789,1.56507 2.03789,2.4206 0,1.43974 -1.55926,2.25487 -3.34612,1.74922 z m 19.36605,0.0223 c -1.58397,-4.20024 -1.84636,-4.75869 -2.23582,-4.75869 -0.12217,0 -0.19054,-0.0399 -0.19054,-0.11109 0,-0.14875 2.33661,-0.12915 2.38621,0.02 0.0205,0.0617 -0.0553,0.0911 -0.23559,0.0911 -0.70201,0 -0.69848,0.0958 0.0766,2.08064 0.53352,1.36627 0.76002,1.87229 0.76002,1.69797 0,-0.0216 0.28065,-0.82293 0.62367,-1.78083 l 0.62368,-1.74163 -0.15817,-0.12808 c -0.0916,-0.0741 -0.28001,-0.12807 -0.4476,-0.12807 -0.1991,0 -0.27999,-0.0284 -0.25918,-0.0911 0.0468,-0.14089 1.94908,-0.16962 1.94908,-0.0294 0,0.0563 -0.0958,0.12147 -0.213,0.1449 -0.36792,0.0736 -0.48538,0.30113 -1.33657,2.58909 l -0.83024,2.23163 -0.23134,0.0229 c -0.17011,0.0168 -0.24454,-0.0121 -0.28119,-0.10929 z m 11.30754,0.0517 c -2.51756,-0.37636 -2.91298,-3.80352 -0.56558,-4.90199 0.69336,-0.32447 1.32341,-0.35265 2.09388,-0.0937 0.3976,0.13365 0.65647,0.18121 0.81967,0.1506 l 0.23852,-0.0448 v 0.58617 c 0,0.68143 -0.0398,0.70801 -0.35913,0.24001 -1.19335,-1.74877 -3.32799,-0.82658 -3.41538,1.47548 -0.087,2.29194 1.79437,3.21107 3.41283,1.66732 0.55695,-0.53124 0.61694,-0.45824 0.23532,0.28631 l -0.30571,0.59643 -0.49434,0.0115 c -0.27188,0.006 -0.67466,0.0271 -0.89506,0.0463 -0.2204,0.0191 -0.56466,0.0103 -0.76502,-0.0197 z m 11.66635,-0.0394 c -0.26972,-0.0741 -0.38745,-0.0776 -0.48848,-0.0145 -0.18113,0.11312 -0.18745,0.099 -0.26307,-0.58529 -0.0777,-0.7033 0.0472,-0.82347 0.30671,-0.29506 0.42143,0.85807 1.53916,1.05257 1.95951,0.34097 0.31022,-0.52516 0.0564,-0.999 -0.86243,-1.61026 -1.12904,-0.75105 -1.42619,-1.10444 -1.42619,-1.69608 0,-0.85028 0.76408,-1.40556 1.65889,-1.20559 0.22967,0.0513 0.55334,0.0938 0.71926,0.0944 0.33455,10e-4 0.38782,0.11572 0.38969,0.83797 0.001,0.3852 -0.0986,0.39473 -0.28596,0.0274 -0.50133,-0.98269 -1.82615,-1.0136 -1.82615,-0.0426 0,0.38954 0.115,0.5123 1.12181,1.19754 1.06813,0.72698 1.36201,1.18492 1.24806,1.9448 -0.13226,0.88193 -1.11127,1.31947 -2.25165,1.00629 z m -26.74814,-0.0304 c -0.60591,-0.14751 -0.91274,-0.45445 -1.46635,-1.46687 l -0.35512,-0.64941 -0.38251,-5.5e-4 -0.38251,-5.5e-4 0.001,0.7468 c 10e-4,0.96291 0.067,1.10352 0.5289,1.1333 0.24146,0.0156 0.34434,0.0537 0.34434,0.12751 0,0.0877 -0.20706,0.10529 -1.2386,0.10529 -1.0524,0 -1.2386,-0.0164 -1.2386,-0.10928 0,-0.0763 0.0769,-0.10929 0.255,-0.10929 0.53482,0 0.54644,-0.0466 0.54644,-2.19056 0,-1.09052 -0.0301,-1.95547 -0.0708,-2.03147 -0.0445,-0.0832 -0.19331,-0.15072 -0.40072,-0.18182 -0.50989,-0.0765 -0.42293,-0.22926 0.16191,-0.2845 2.53885,-0.23978 3.66115,0.17002 3.66115,1.33684 0,0.55894 -0.23761,0.91965 -0.78977,1.1989 -0.23813,0.12044 -0.24049,0.1262 -0.11043,0.26992 0.0731,0.0808 0.31374,0.49643 0.53477,0.92369 0.35884,0.69369 0.43473,0.79245 0.70888,0.92257 0.52406,0.24874 0.32826,0.41439 -0.30702,0.25973 z m -1.36394,-2.53183 c 0.37765,-0.28196 0.48053,-0.49745 0.48053,-1.00656 0,-0.7813 -0.43421,-1.20217 -1.24027,-1.20217 h -0.46281 v 1.21196 1.21196 l 0.51668,-0.037 c 0.35267,-0.0252 0.57673,-0.0818 0.70587,-0.17822 z M 160.17,277.39452 c 0,-0.0812 0.0855,-0.10929 0.33266,-0.10929 0.42376,0 0.57925,-0.0855 0.6797,-0.37363 0.10795,-0.30967 0.10991,-5.38276 0.002,-5.77055 -0.0852,-0.30673 -0.37791,-0.48598 -0.79367,-0.48598 -0.1478,0 -0.22092,-0.0362 -0.22092,-0.10929 0,-0.094 0.23477,-0.10928 1.67576,-0.10928 1.3804,0 1.67575,0.0178 1.67575,0.10106 0,0.0737 -0.1366,0.10879 -0.50466,0.12958 -0.86769,0.049 -0.8068,-0.19728 -0.8068,3.2633 0,2.20613 0.0223,2.98365 0.0874,3.04878 0.0608,0.0608 0.44412,0.0874 1.25682,0.0872 1.37954,-2.7e-4 1.41862,-0.0152 1.9724,-0.75022 0.1995,-0.2648 0.40644,-0.48295 0.45987,-0.48478 0.11899,-0.004 0.13496,-0.0447 -0.35215,0.8964 l -0.40072,0.77424 -2.53185,8.2e-4 c -2.20236,8.3e-4 -2.53185,-0.0133 -2.53185,-0.10839 z m 7.43161,0 c 0,-0.0751 0.0754,-0.10929 0.24108,-0.10929 0.52715,0 0.52143,0.0229 0.54549,-2.17977 l 0.0216,-1.97312 -0.18218,-0.18218 c -0.11458,-0.11457 -0.26453,-0.18218 -0.40407,-0.18218 -0.14866,0 -0.22189,-0.0361 -0.22189,-0.10929 0,-0.0944 0.2631,-0.10929 1.93076,-0.10929 h 1.93076 v 0.4312 c 0,0.23715 0.0199,0.48305 0.0442,0.54644 0.0287,0.0749 0.004,0.11525 -0.0699,0.11525 -0.0704,0 -0.14822,-0.11368 -0.20297,-0.29643 -0.1354,-0.45193 -0.26242,-0.50502 -1.20828,-0.50502 h -0.82167 v 1.02002 1.02003 h 0.73338 c 0.84903,0 0.99145,-0.0541 1.05664,-0.40161 0.0273,-0.14538 0.091,-0.25412 0.14885,-0.25412 0.0799,0 0.10118,0.16082 0.10118,0.76502 0,0.60419 -0.0213,0.76501 -0.10118,0.76501 -0.0579,0 -0.12158,-0.10874 -0.14885,-0.25412 -0.0652,-0.34747 -0.20761,-0.40161 -1.05664,-0.40161 h -0.73338 v 0.94121 c 0,1.26814 -0.0789,1.1717 0.95828,1.1717 0.97984,0 1.10783,-0.0595 1.30572,-0.60672 0.20603,-0.56977 0.33562,-0.29001 0.23885,0.51565 l -0.0459,0.38251 h -2.0299 c -1.75578,0 -2.0299,-0.0148 -2.0299,-0.10929 z m 12.38601,0.006 c 0,-0.0569 0.0942,-0.1242 0.20943,-0.1495 0.11518,-0.0253 0.28098,-0.12216 0.36843,-0.21526 0.24495,-0.26072 1.76824,-4.22036 1.71114,-4.44789 -0.0749,-0.29858 0.72155,-0.28282 0.8283,0.0164 0.90928,2.54855 1.64974,4.44862 1.77459,4.55368 0.0833,0.0701 0.22985,0.1275 0.32559,0.1275 0.10616,0 0.17407,0.0426 0.17407,0.10929 0,0.0926 -0.17809,0.10929 -1.16574,0.10929 -0.98764,0 -1.16574,-0.0167 -1.16574,-0.10929 0,-0.0734 0.0734,-0.10929 0.22336,-0.10929 0.57178,0 0.62089,-0.22168 0.27076,-1.22255 l -0.23651,-0.67611 -0.82777,0.0204 -0.82776,0.0204 -0.17843,0.43715 c -0.40054,0.98133 -0.35561,1.3052 0.19328,1.39297 0.17481,0.0279 0.29019,0.0861 0.29019,0.14638 0,0.0798 -0.19858,0.1 -0.9836,0.1 -0.80128,0 -0.98359,-0.0192 -0.98359,-0.1035 z m 2.87345,-3.21952 c -0.17325,-0.4652 -0.33,-0.86083 -0.34834,-0.87918 -0.0183,-0.0183 -0.17115,0.32129 -0.33956,0.75475 -0.16841,0.43345 -0.32273,0.82908 -0.34294,0.87917 -0.0278,0.069 0.1305,0.0911 0.65455,0.0911 h 0.69128 z m 4.04814,3.21373 c 0,-0.0759 0.0763,-0.10929 0.2498,-0.10929 0.53442,0 0.56704,-0.14904 0.53767,-2.45652 -0.0252,-1.98263 -0.021,-1.96735 -0.55887,-2.03948 -0.18956,-0.0254 -0.30146,-0.0781 -0.30146,-0.14181 0,-0.13201 2.55758,-0.1124 2.60159,0.0199 0.0167,0.0501 -0.11355,0.095 -0.33766,0.11658 -0.61649,0.0592 -0.58818,-0.0505 -0.58818,2.28023 0,2.36702 -0.083,2.1482 0.81462,2.1482 0.7221,0 1.00836,-0.12345 1.27964,-0.55187 0.11044,-0.17441 0.24178,-0.31831 0.29187,-0.31977 0.1231,-0.004 0.12271,-0.002 -0.1376,0.6183 l -0.22868,0.54478 h -1.81137 c -1.56154,0 -1.81137,-0.0151 -1.81137,-0.10929 z m 16.75754,0 c 0,-0.0782 0.0797,-0.10929 0.28014,-0.10929 0.5189,0 0.52131,-0.0103 0.52131,-2.23222 0,-2.20185 0.001,-2.19656 -0.49435,-2.26303 -0.1912,-0.0256 -0.3071,-0.0788 -0.3071,-0.14088 0,-0.0818 0.34421,-0.0997 1.92123,-0.0997 h 1.92122 l 0.0452,0.27322 c 0.0797,0.4824 0.0564,0.81967 -0.0567,0.81967 -0.0569,0 -0.12477,-0.0968 -0.15076,-0.21516 -0.11479,-0.52264 -0.24596,-0.58629 -1.20822,-0.58629 h -0.86901 v 1.02002 1.02003 h 0.76502 c 0.84377,0 1.05645,-0.0953 1.05645,-0.47358 0,-0.11334 0.0413,-0.18215 0.10929,-0.18215 0.0902,0 0.10928,0.13357 0.10928,0.76501 0,0.63145 -0.0191,0.76502 -0.10928,0.76502 -0.0724,0 -0.10929,-0.0724 -0.10929,-0.21444 0,-0.3547 -0.21048,-0.44129 -1.07266,-0.44129 h -0.74881 v 0.91553 c 0,1.24395 -0.0386,1.19738 0.99176,1.19738 0.93985,0 1.20984,-0.13384 1.31327,-0.651 0.0294,-0.14721 0.0882,-0.22331 0.17233,-0.22331 0.1307,0 0.13772,0.22127 0.0295,0.92895 l -0.0362,0.2368 h -2.03675 c -1.76187,0 -2.03675,-0.0148 -2.03675,-0.10929 z m 18.72473,0 c 0,-0.0732 0.0732,-0.10929 0.22189,-0.10929 0.13844,0 0.28915,-0.0673 0.40073,-0.17884 l 0.17883,-0.17883 v -1.89764 c 0,-2.14819 0.006,-2.12606 -0.57889,-2.22484 -0.17939,-0.0303 -0.29148,-0.0854 -0.27493,-0.13521 0.0457,-0.13731 2.45672,-0.1563 2.45672,-0.0194 0,0.0653 -0.10964,0.12317 -0.29184,0.15396 -0.5001,0.0845 -0.50961,0.12482 -0.50961,2.16205 0,2.14799 0.0512,2.3187 0.69559,2.3187 0.11029,0 0.17872,0.0418 0.17872,0.10929 0,0.0929 -0.1862,0.10929 -1.23861,0.10929 -1.0524,0 -1.2386,-0.0164 -1.2386,-0.10929 z m 11.22027,0 c 0,-0.0759 0.0763,-0.10929 0.2498,-0.10929 0.54179,0 0.5643,-0.10034 0.5371,-2.39402 -0.0218,-1.83885 -0.0224,-1.84534 -0.19389,-1.98406 -0.0946,-0.0765 -0.26673,-0.13917 -0.38251,-0.13917 -0.13854,0 -0.2105,-0.0374 -0.2105,-0.10929 0,-0.0944 0.2631,-0.10929 1.93076,-0.10929 h 1.93076 v 0.55251 c 0,0.61418 -0.0949,0.69116 -0.26,0.21093 -0.14925,-0.43416 -0.24344,-0.472 -1.17467,-0.472 h -0.82395 v 1.02002 1.02003 h 0.75981 c 0.83508,0 0.93892,-0.0442 1.02506,-0.43641 0.0265,-0.12063 0.0948,-0.21932 0.15168,-0.21932 0.0829,0 0.1035,0.15259 0.1035,0.76501 0,0.62086 -0.02,0.76502 -0.10599,0.76502 -0.0636,0 -0.12527,-0.10278 -0.1542,-0.25698 -0.0656,-0.34942 -0.19526,-0.39875 -1.04848,-0.39875 h -0.73538 l 0.0202,1.03824 0.0202,1.03824 0.81869,0.0206 c 0.99979,0.0251 1.18619,-0.0468 1.37036,-0.52905 0.18324,-0.47982 0.35919,-0.44858 0.29894,0.0531 -0.0253,0.21038 -0.0462,0.47267 -0.0466,0.58287 l -8.3e-4,0.20036 h -2.04004 c -1.76481,0 -2.04005,-0.0147 -2.04005,-0.10929 z m -120.88879,-9.98042 c -1.95854,-0.49873 -3.05337,-2.41548 -2.53574,-4.43939 0.57784,-2.25935 2.65957,-3.29465 5.32029,-2.64595 0.42076,0.10259 0.85518,0.1691 0.96538,0.14781 l 0.20036,-0.0387 v 0.91923 c 0,1.07524 -0.0965,1.20044 -0.36268,0.47046 -0.38341,-1.05154 -1.45637,-1.59696 -2.70031,-1.37265 -1.54535,0.27865 -2.47428,1.56808 -2.47428,3.43446 0,2.53826 2.09897,4.00845 4.34705,3.04481 l 0.33052,-0.14168 -0.0255,-0.95298 c -0.0314,-1.17255 -0.11917,-1.30457 -0.86745,-1.30457 -0.3364,0 -0.4331,-0.0244 -0.4331,-0.10928 0,-0.0937 0.21858,-0.10929 1.53004,-0.10929 1.24813,0 1.53004,0.0184 1.53004,0.1 0,0.0601 -0.11475,0.11833 -0.28746,0.14595 -0.45728,0.0731 -0.51399,0.21704 -0.51399,1.30442 v 0.93505 l -0.33204,0.14688 c -1.02336,0.45268 -2.8411,0.68191 -3.69111,0.46546 z m 64.53245,-0.009 c -0.20036,-0.0571 -0.46621,-0.0863 -0.59078,-0.065 -0.22538,0.0386 -0.2267,0.0369 -0.27258,-0.34513 -0.10595,-0.88209 -0.0209,-1.08539 0.24007,-0.57385 0.18072,0.35425 0.66769,0.77808 0.9615,0.83684 0.48739,0.0975 1.04436,-0.22352 1.12394,-0.64777 0.10442,-0.55657 -0.14569,-0.88568 -1.20399,-1.5843 -0.94715,-0.62525 -1.19345,-0.95519 -1.15569,-1.54811 0.0616,-0.96719 0.9697,-1.46548 2.00505,-1.10019 0.15838,0.0559 0.3731,0.0853 0.47716,0.0654 0.20332,-0.0389 0.19332,-0.0672 0.29433,0.83478 0.0333,0.29755 -0.19732,0.34264 -0.27007,0.0528 -0.0711,-0.28316 -0.5772,-0.74753 -0.87581,-0.80355 -0.55517,-0.10415 -0.98814,0.19511 -0.98814,0.68298 0,0.38781 0.15464,0.56133 1.03766,1.16431 1.08608,0.74165 1.3688,1.10257 1.36509,1.74263 -0.006,1.0155 -1.0036,1.61388 -2.14774,1.28812 z m -53.66763,-0.0342 c -0.6823,-0.10656 -1.02463,-0.41321 -1.6208,-1.45189 l -0.39728,-0.69217 -0.37794,-0.0222 -0.37794,-0.0222 0.0244,0.87489 c 0.0275,0.98689 0.0473,1.02744 0.52808,1.08163 0.72559,0.0818 0.271,0.16443 -0.9044,0.16443 -1.17737,0 -1.57778,-0.0728 -0.95113,-0.17306 0.50415,-0.0806 0.51398,-0.12328 0.51398,-2.23128 0,-2.13296 -0.0124,-2.18577 -0.51414,-2.18577 -0.20137,0 -0.28731,-0.0314 -0.28731,-0.10482 0,-0.27997 2.61977,-0.32064 3.29726,-0.0512 0.62424,0.24827 0.81927,0.53862 0.81927,1.21967 0,0.62666 -0.12088,0.83981 -0.63691,1.12305 -0.3135,0.17206 -0.32703,0.19179 -0.22476,0.32786 0.0598,0.0796 0.26697,0.45625 0.46027,0.83694 0.39006,0.76815 0.57453,0.99906 0.88442,1.10709 0.40564,0.14141 0.24837,0.2746 -0.23508,0.19909 z m -1.59469,-2.5348 c 0.36242,-0.19379 0.53316,-0.52363 0.53316,-1.03 0,-0.77213 -0.49515,-1.2386 -1.31476,-1.2386 h -0.38528 v 1.20217 1.20217 h 0.4565 c 0.30591,0 0.54026,-0.0448 0.71038,-0.13574 z m 31.67226,2.53727 c -0.72546,-0.122 -1.09174,-0.46633 -1.7214,-1.6183 l -0.30864,-0.56465 h -0.3592 -0.35919 v 0.82395 c 0,0.97473 0.0445,1.06866 0.53266,1.12368 0.73239,0.0826 0.28345,0.16527 -0.89695,0.16527 -1.2348,0 -1.51524,-0.0562 -0.93004,-0.18636 0.48679,-0.10829 0.49724,-0.15894 0.47546,-2.30553 -0.021,-2.07181 -0.01,-2.02599 -0.50342,-2.09312 -0.16784,-0.0228 -0.3179,-0.0799 -0.33347,-0.12684 -0.0757,-0.22841 2.60707,-0.29378 3.22306,-0.0785 1.14172,0.39895 1.34873,1.78452 0.35194,2.3556 -0.19402,0.11115 -0.36656,0.21279 -0.38341,0.22585 -0.0169,0.0131 0.0385,0.0974 0.12291,0.1874 0.0845,0.09 0.26001,0.39315 0.39012,0.67366 0.34054,0.73423 0.55253,1.02963 0.83518,1.16375 0.13689,0.065 0.2489,0.16575 0.2489,0.22398 0,0.0582 -0.008,0.10202 -0.0182,0.0973 -0.01,-0.005 -0.17485,-0.0349 -0.36629,-0.0671 z m -1.58718,-2.53466 c 0.3346,-0.17945 0.51451,-0.53628 0.51451,-1.02047 0,-0.77969 -0.37862,-1.16657 -1.20672,-1.23304 l -0.46904,-0.0376 v 1.21214 1.21215 h 0.45651 c 0.30298,0 0.53999,-0.0448 0.70474,-0.13313 z m 18.21922,2.46135 c -2.08064,-0.74628 -2.30845,-3.72608 -0.36058,-4.71645 2.31425,-1.17666 4.6662,0.69373 3.93371,3.12828 -0.41096,1.36591 -2.09987,2.11659 -3.57313,1.58817 z m 1.44282,-0.0827 c 0.47252,-0.11899 1.03459,-0.68346 1.22254,-1.22778 0.18689,-0.54126 0.19154,-1.77251 0.009,-2.30068 -0.56828,-1.64143 -2.57,-1.70761 -3.27742,-0.10835 -0.18576,0.41992 -0.2498,1.44054 -0.12945,2.06282 0.23213,1.2002 1.1172,1.84051 2.17566,1.57399 z m 17.22921,0.0839 c -0.58549,-0.19073 -1.23759,-0.77395 -1.4835,-1.32681 -0.25983,-0.58413 -0.25159,-1.67918 0.017,-2.25195 0.93112,-1.98603 4.05081,-1.9873 4.96832,-0.002 0.12979,0.28083 0.15745,0.47531 0.15745,1.10722 0,1.21629 -0.45082,1.96063 -1.45956,2.40987 -0.52695,0.23467 -1.58112,0.26519 -2.19966,0.0637 z m 1.48474,-0.10647 c 0.45883,-0.13626 0.85766,-0.51438 1.10995,-1.05232 0.24598,-0.52446 0.28035,-2.01802 0.058,-2.51848 -0.38376,-0.86363 -0.94271,-1.24116 -1.76048,-1.18909 -1.11931,0.0713 -1.79395,1.14157 -1.69097,2.6827 0.10719,1.60405 1.03495,2.44798 2.28353,2.07719 z m 7.11307,-1.69771 c -0.92828,-1.03353 -1.75749,-1.94224 -1.8427,-2.01935 l -0.15492,-0.1402 0.0231,1.75331 c 0.0261,1.98239 0.0183,1.95456 0.57322,2.03088 0.68866,0.0947 0.35567,0.18164 -0.69582,0.18164 -1.01874,0 -1.3651,-0.0777 -0.77019,-0.17287 0.52455,-0.0839 0.51518,-0.0435 0.51518,-2.22275 0,-2.16926 -0.003,-2.18234 -0.47355,-2.25887 -0.15373,-0.025 -0.29312,-0.0863 -0.30977,-0.13624 -0.0228,-0.0684 0.14789,-0.0908 0.69302,-0.0908 h 0.72329 l 1.55962,1.72509 c 0.85779,0.9488 1.59957,1.77666 1.64838,1.83969 0.10891,0.14061 0.13317,-3.02481 0.0245,-3.19657 -0.0367,-0.058 -0.22205,-0.12353 -0.41199,-0.14572 -0.18993,-0.0222 -0.35888,-0.0813 -0.37544,-0.13142 -0.0231,-0.07 0.20762,-0.0911 0.99599,-0.0911 0.86351,0 1.02609,0.0173 1.02609,0.10929 0,0.0751 -0.0754,0.10929 -0.24108,0.10929 -0.53428,0 -0.52146,-0.0582 -0.54513,2.47125 -0.0196,2.09259 -0.0308,2.26457 -0.14761,2.26457 -0.0731,0 -0.83841,-0.79272 -1.81419,-1.87914 z m -72.15091,1.73343 c 0,-0.0401 0.0939,-0.0729 0.20875,-0.0729 0.11481,0 0.29514,-0.068 0.40072,-0.15101 l 0.19198,-0.15101 v -1.94568 c 0,-2.22561 -0.01,-2.26955 -0.51415,-2.26955 -0.20681,0 -0.2873,-0.0306 -0.2873,-0.10929 0,-0.0944 0.2631,-0.10929 1.93076,-0.10929 h 1.93076 l 5.5e-4,0.16393 c 2.7e-4,0.0902 0.0213,0.33606 0.0466,0.54644 0.0612,0.50945 -0.10834,0.52437 -0.28565,0.0252 -0.15992,-0.45022 -0.32807,-0.51695 -1.30249,-0.51695 h -0.71772 v 1.02002 1.02003 h 0.79731 c 0.84844,0 1.02416,-0.0778 1.02416,-0.45337 0,-0.0712 0.0492,-0.12951 0.10929,-0.12951 0.0902,0 0.10929,0.13358 0.10929,0.76502 0,0.63145 -0.0191,0.76502 -0.10929,0.76502 -0.0723,0 -0.10929,-0.0723 -0.10929,-0.21337 0,-0.38208 -0.13971,-0.44236 -1.02523,-0.44236 h -0.79624 v 0.94196 c 0,1.22427 -0.0259,1.19543 1.04008,1.15895 0.79406,-0.0272 0.79634,-0.0278 1.00984,-0.26673 0.1177,-0.13173 0.23329,-0.33601 0.25688,-0.45397 0.0236,-0.11796 0.088,-0.21447 0.14308,-0.21447 0.10884,0 0.13893,0.51661 0.0546,0.93806 l -0.0455,0.22769 h -2.03095 c -1.30538,0 -2.03094,-0.026 -2.03094,-0.0729 z m 5.39155,0.006 c 0,-0.0368 0.12204,-0.12694 0.2712,-0.20036 0.14915,-0.0734 0.33113,-0.23772 0.40439,-0.3651 0.27404,-0.47646 1.6433,-4.09952 1.60487,-4.24648 -0.0355,-0.13586 -0.005,-0.14847 0.35504,-0.14847 h 0.39386 l 0.83165,2.26361 c 0.87825,2.39043 0.94901,2.54508 1.16443,2.54508 0.18667,0 0.36612,0.0752 0.36612,0.15351 0,0.0358 -0.54097,0.0651 -1.20217,0.0651 -1.16492,0 -1.53966,-0.0772 -0.89252,-0.18398 0.36399,-0.06 0.4918,-0.14711 0.4918,-0.33509 0,-0.11508 -0.29182,-1.01792 -0.4747,-1.46864 -0.0468,-0.11539 -0.14271,-0.12753 -0.86366,-0.10928 l -0.81098,0.0205 -0.23569,0.6193 c -0.34843,0.91554 -0.28415,1.14089 0.36319,1.27327 0.4953,0.10128 0.1434,0.18391 -0.78323,0.18391 -0.54831,0 -0.9836,-0.0296 -0.9836,-0.0669 z m 3.13294,-2.38405 c 0,-0.11063 -0.60713,-1.70205 -0.64934,-1.70205 -0.0455,0 -0.66645,1.58524 -0.66357,1.69397 0.002,0.0662 1.31291,0.0743 1.31291,0.008 z m 4.08009,2.38251 c 0,-0.0376 0.15574,-0.0909 0.34608,-0.11848 0.55646,-0.0805 0.52823,0.0423 0.52823,-2.29925 v -2.10398 h -0.65053 c -0.73566,0 -0.82197,0.046 -0.96195,0.51326 -0.10716,0.35768 -0.32429,0.40929 -0.25453,0.0605 0.0251,-0.12523 0.0455,-0.40391 0.0455,-0.6193 0,-0.33908 0.019,-0.39162 0.14142,-0.39162 0.0778,0 0.16168,0.0328 0.18644,0.0729 0.0666,0.10782 3.69261,0.0969 3.93126,-0.0118 0.2398,-0.10926 0.23194,-0.12556 0.27788,0.57649 0.0439,0.67148 -0.0733,0.83182 -0.22874,0.31291 -0.13999,-0.46722 -0.22629,-0.51327 -0.96196,-0.51327 h -0.65052 v 2.07127 c 0,2.23343 0.011,2.2989 0.38771,2.30126 0.23665,10e-4 0.48659,0.0802 0.48659,0.15322 0,0.0354 -0.59015,0.0644 -1.31146,0.0644 -0.76866,0 -1.31146,-0.0283 -1.31146,-0.0684 z m 5.17298,-0.004 c 0,-0.0401 0.0999,-0.0729 0.22189,-0.0729 0.13844,0 0.28915,-0.0673 0.40073,-0.17883 l 0.17883,-0.17884 v -1.91786 c 0,-2.19483 -0.0108,-2.24172 -0.51414,-2.24172 -0.20681,0 -0.28731,-0.0306 -0.28731,-0.10929 0,-0.0944 0.26311,-0.10928 1.93077,-0.10928 h 1.93076 l 0.0109,0.43715 c 0.006,0.24043 0.0142,0.4754 0.0182,0.52215 0.019,0.22119 -0.17476,0.1139 -0.24362,-0.13493 -0.14822,-0.53556 -0.3013,-0.6058 -1.3203,-0.6058 h -0.72385 v 1.02003 1.02002 h 0.79253 c 0.84621,0 0.90404,-0.0223 0.99455,-0.38292 0.0276,-0.10997 0.0958,-0.19995 0.15158,-0.19995 0.0802,0 0.10139,0.16006 0.10139,0.76502 0,0.63144 -0.0191,0.76501 -0.10929,0.76501 -0.0651,0 -0.10929,-0.067 -0.10929,-0.16593 0,-0.41432 -0.15781,-0.4898 -1.02415,-0.4898 h -0.79732 v 0.98104 c 0,1.19622 -0.0339,1.16045 1.06235,1.11986 0.85608,-0.0317 1.05372,-0.13918 1.20904,-0.65757 0.18451,-0.61587 0.34128,-0.24469 0.23234,0.55013 l -0.0463,0.33803 h -2.03015 c -1.30486,0 -2.03014,-0.026 -2.03014,-0.0729 z m 16.53897,0.006 c 0,-0.0369 0.2161,-0.0902 0.48021,-0.11848 0.34331,-0.0368 0.53545,-0.0989 0.67395,-0.21807 l 0.19373,-0.16664 v -2.92698 -2.92697 l -0.20443,-0.17584 c -0.16137,-0.1388 -0.28706,-0.17583 -0.59678,-0.17583 -0.35389,0 -0.55552,-0.0883 -0.44774,-0.19609 0.0224,-0.0224 0.75331,-0.0699 1.6243,-0.1057 2.92658,-0.12015 3.94949,0.1426 4.35678,1.11911 0.30394,0.72872 -0.0903,1.55851 -0.86853,1.82793 l -0.28656,0.0992 0.40057,0.18339 c 1.36225,0.62365 1.67712,2.17103 0.65065,3.1975 -0.62078,0.62078 -0.78418,0.65052 -3.57454,0.65052 -1.41405,0 -2.40161,-0.0276 -2.40161,-0.0671 z m 4.37719,-0.30754 c 1.14599,-0.34334 1.53219,-1.98205 0.67511,-2.86456 -0.44515,-0.45836 -0.80046,-0.57675 -1.82829,-0.60918 l -0.89253,-0.0282 v 1.47164 c 0,1.63127 0.0365,1.7865 0.46985,2.00039 0.26792,0.13223 1.17673,0.14946 1.57586,0.0299 z m 0.17649,-3.89186 c 0.81423,-0.41891 0.81301,-1.74459 -0.002,-2.31056 -0.36845,-0.25583 -1.07569,-0.38267 -1.73814,-0.31173 l -0.48195,0.0516 v 1.38416 1.38416 l 0.96538,-0.0238 c 0.80034,-0.0198 1.01521,-0.0495 1.25682,-0.1738 z m 17.74114,4.19807 c 0,-0.0376 0.15573,-0.0908 0.34608,-0.1182 0.62553,-0.09 0.60108,0.005 0.60108,-2.33833 v -2.06519 h -0.68324 c -0.75273,0 -0.78427,0.016 -0.94394,0.47714 -0.18371,0.53063 -0.29549,0.41171 -0.24374,-0.25932 0.0524,-0.679 0.0717,-0.72166 0.27035,-0.59757 0.10117,0.0632 0.67072,0.0883 2.0013,0.0883 1.33057,0 1.90012,-0.0251 2.00129,-0.0883 0.19869,-0.12409 0.21799,-0.0814 0.27035,0.59757 0.0512,0.66423 -0.0534,0.78695 -0.2309,0.27074 -0.16072,-0.46751 -0.20193,-0.48856 -0.95678,-0.48856 h -0.68324 v 2.02384 c 0,2.22497 0.0219,2.34666 0.42307,2.34869 0.26969,0.001 0.52409,0.0757 0.52409,0.15322 0,0.0354 -0.60655,0.0644 -1.34788,0.0644 -0.79137,0 -1.34789,-0.0282 -1.34789,-0.0684 z m 26.80983,-0.0435 c -0.18155,-0.056 -0.46843,-0.22018 -0.63751,-0.3649 -0.3021,-0.25858 -0.30742,-0.27125 -0.30742,-0.73105 v -0.4679 h 1.28083 1.28083 l -0.0504,0.49179 c -0.0577,0.56327 -0.2348,0.81831 -0.72623,1.04583 -0.34256,0.1586 -0.40443,0.16053 -0.84011,0.0262 z m -0.97732,-1.94636 c -0.0153,-0.0501 -0.1295,-2.28777 -0.2538,-4.97262 -0.27545,-5.94958 -0.24435,-5.60721 -0.51962,-5.72123 -0.20814,-0.0862 -0.21422,-0.10316 -0.21422,-0.5978 0,-0.49372 0.005,-0.50781 0.16634,-0.46733 0.94588,0.23741 2.67205,0.23979 4.11412,0.006 l 0.30965,-0.0503 -8.2e-4,0.46468 c -8.3e-4,0.43967 -0.0122,0.47135 -0.21858,0.58879 -0.16439,0.0935 -0.21812,0.1767 -0.21812,0.33762 0,0.27541 -0.4915,9.11046 -0.55088,9.90244 l -0.0451,0.60109 h -1.27078 c -0.95321,0 -1.27772,-0.0228 -1.29858,-0.0911 z m 0.019,-12.08218 c -1.83762,-0.19463 -3.62565,-1.07254 -3.99359,-1.96083 -0.46858,-1.13127 2.37095,-1.87942 6.3553,-1.67446 2.55689,0.13152 3.9098,0.55907 4.20214,1.32797 0.10806,0.28423 0.004,0.50098 -0.4466,0.93082 -1.15896,1.10542 -3.56497,1.64682 -6.11725,1.3765 z m -3.33809,-4.18152 v -0.74012 l 0.45537,-0.15651 c 2.49561,-0.85773 5.45597,-0.86582 8.26948,-0.0226 l 0.52823,0.15832 v 0.76973 c 0,0.70395 -0.0109,0.76536 -0.1275,0.71866 -1.91638,-0.76746 -5.69679,-0.85162 -8.33897,-0.18565 l -0.78661,0.19826 z m 5.87941,-2.33186 c 0.70911,-0.32234 1.2631,-1.03064 1.40937,-1.80193 0.0957,-0.50484 0.21935,-0.67307 0.6895,-0.93841 0.45179,-0.25498 0.54511,-0.45628 0.54581,-1.1775 8.2e-4,-0.57894 -0.30179,-0.53641 -0.51398,0.0723 -0.0868,0.24886 -0.35586,0.38306 -0.76809,0.38306 -0.3628,0 -0.60811,0.14418 -0.76348,0.44873 -0.15914,0.31193 -0.41194,0.5713 -0.55684,0.5713 -0.0744,0 -0.0799,-0.034 -0.0227,-0.14093 0.0988,-0.18459 0.0968,-0.56588 -0.003,-0.62775 -0.0433,-0.0268 -0.16627,0.0326 -0.27322,0.13199 -0.20372,0.18929 -0.59219,0.45395 -0.5993,0.40828 -0.002,-0.0146 -0.0147,-0.25611 -0.0276,-0.53661 -0.036,-0.78021 -0.0556,-0.79335 -0.51687,-0.34655 -0.21971,0.2128 -0.73039,0.60373 -1.13486,0.86874 -0.89761,0.58812 -1.01162,0.75186 -1.01199,1.45339 0,0.42725 0.0286,0.55521 0.16366,0.72776 l 0.16394,0.20935 -0.23313,-0.16545 c -0.79109,-0.56145 -1.06589,-1.15617 -1.02965,-2.22841 0.0384,-1.13474 0.19053,-1.40785 1.10866,-1.98961 0.84902,-0.53797 1.91239,-1.39513 2.5403,-2.04767 0.27051,-0.28113 0.50612,-0.48805 0.52356,-0.45982 0.10159,0.16437 0.19934,1.11734 0.15906,1.55069 -0.071,0.76375 0.0857,0.75381 1.02316,-0.0649 0.28578,-0.24957 0.46736,-0.36243 0.49948,-0.31046 0.10291,0.1665 0.0607,0.93149 -0.0617,1.11828 -0.15378,0.2347 -0.0526,0.29779 0.26488,0.16515 0.2791,-0.11661 0.44274,-0.32299 0.7657,-0.96567 0.28918,-0.57547 0.82749,-0.82993 1.7557,-0.82993 0.38552,0 0.55244,-0.15587 0.76632,-0.71561 0.16286,-0.42619 0.23375,-0.52237 0.49197,-0.6675 l 0.30169,-0.16956 -0.0483,1.00759 c -0.0615,1.28251 -0.11763,1.4053 -0.84673,1.85282 -0.67111,0.41193 -0.98271,0.80117 -1.09522,1.36815 -0.27149,1.36805 -0.54412,1.9403 -1.27562,2.67759 -0.48751,0.49136 -1.28857,0.94727 -2.10237,1.19655 -0.64908,0.19881 -0.76184,0.18804 -0.28771,-0.0275 z"
       style="opacity:1;fill:#666666;fill-opacity:1;stroke-width:0.0728588;stop-opacity:1" />
    <path
       id="path1767"
       d="m 210.74078,246.48562 c 0.60808,-0.44982 0.94069,-0.94163 1.05911,-1.56604 0.0946,-0.49874 0.21707,-0.67053 0.69692,-0.97749 0.22018,-0.14085 0.43153,-0.33817 0.46967,-0.43849 0.0818,-0.2152 0.0941,-1.26686 0.0147,-1.26349 -0.13377,0.006 -0.35797,0.2461 -0.49271,0.52836 -0.14427,0.30225 -0.15407,0.30802 -0.60835,0.35822 -0.53468,0.0591 -0.76098,0.18451 -0.92804,0.51432 -0.27863,0.5501 -0.52188,0.6514 -0.47877,0.19938 0.0494,-0.51802 -0.0134,-0.55028 -0.42999,-0.22097 -0.48349,0.38219 -0.47979,0.3839 -0.51985,-0.24032 -0.0491,-0.76527 -0.0717,-0.77591 -0.59974,-0.28198 -0.25145,0.23521 -0.71596,0.59439 -1.03225,0.79818 -0.77976,0.50239 -0.94996,0.67183 -1.05093,1.04617 -0.0964,0.35741 -0.0503,0.96424 0.0872,1.14734 0.0495,0.0659 -0.0668,-0.0277 -0.2583,-0.20807 -0.56767,-0.53448 -0.72502,-0.86663 -0.76032,-1.60497 -0.0546,-1.14218 0.21911,-1.7394 1.01433,-2.21311 0.74632,-0.44457 1.80802,-1.27412 2.49264,-1.94758 0.35336,-0.3476 0.65526,-0.59415 0.6709,-0.54789 0.1126,0.33316 0.18444,1.10028 0.14231,1.51972 -0.0496,0.4934 -0.0491,0.49515 0.13327,0.49515 0.18717,0 0.71336,-0.37822 1.10242,-0.79238 0.26156,-0.27846 0.32958,-0.20726 0.33115,0.34663 8.3e-4,0.2716 -0.0455,0.46755 -0.15054,0.63752 l -0.15166,0.24538 0.2063,-2.7e-4 c 0.36784,-5.5e-4 0.61775,-0.22727 0.96767,-0.87733 0.39844,-0.74022 0.59729,-0.8657 1.50256,-0.94822 0.78081,-0.0712 0.82826,-0.10309 1.08863,-0.73262 0.20604,-0.49819 0.59936,-0.90899 0.73778,-0.77058 0.0219,0.0219 0.008,0.48818 -0.0312,1.03619 -0.0819,1.1494 -0.12588,1.24435 -0.74999,1.61953 -0.86997,0.52297 -1.0933,0.84295 -1.25918,1.80418 -0.23989,1.39016 -1.10213,2.52009 -2.3854,3.12601 -0.37653,0.17778 -0.78295,0.34619 -0.90316,0.37423 -0.2133,0.0498 -0.21153,0.0458 0.0728,-0.1646 z"
       style="opacity:1;fill:#b23633;fill-opacity:1;stroke-width:0.0728588;stop-opacity:1"
       inkscape:connector-curvature="0" />
  </g>
</svg>
