<?xml version="1.0" encoding="UTF-8" standalone="no"?>
<svg
   xmlns:dc="http://purl.org/dc/elements/1.1/"
   xmlns:cc="http://creativecommons.org/ns#"
   xmlns:rdf="http://www.w3.org/1999/02/22-rdf-syntax-ns#"
   xmlns:svg="http://www.w3.org/2000/svg"
   xmlns="http://www.w3.org/2000/svg"
   xmlns:sodipodi="http://sodipodi.sourceforge.net/DTD/sodipodi-0.dtd"
   xmlns:inkscape="http://www.inkscape.org/namespaces/inkscape"
   id="svg8"
   version="1.1"
   viewBox="0 0 1097.7832 113.88889"
   height="113.88889mm"
   width="1097.7832mm"
   sodipodi:docname="shake-it-so-logo-meta.svg"
   inkscape:version="1.0beta1 (32d4812, 2019-09-19)">
  <defs
     id="defs840" />
  <sodipodi:namedview
     pagecolor="#ffffff"
     bordercolor="#666666"
     inkscape:document-rotation="0"
     borderopacity="1"
     objecttolerance="10"
     gridtolerance="10"
     guidetolerance="10"
     inkscape:pageopacity="0"
     inkscape:pageshadow="2"
     inkscape:window-width="1600"
     inkscape:window-height="907"
     id="namedview838"
     showgrid="false"
     units="mm"
     inkscape:snap-global="false"
     inkscape:zoom="0.10224212"
     inkscape:cx="981.837"
     inkscape:cy="1208.5715"
     inkscape:window-x="0"
     inkscape:window-y="23"
     inkscape:window-maximized="0"
     inkscape:current-layer="svg8"
     showguides="true"
     inkscape:guide-bbox="true"
     fit-margin-top="0"
     fit-margin-left="0"
     fit-margin-right="0"
     fit-margin-bottom="0">
    <sodipodi:guide
       position="87.611238,405.63736"
       orientation="0,-1"
       id="guide851" />
    <sodipodi:guide
       position="259.53622,385.30215"
       orientation="0,-1"
       id="guide853" />
    <sodipodi:guide
       id="guide874"
       orientation="0,-1"
       position="224.15772,-160.58996" />
    <sodipodi:guide
       id="guide876"
       orientation="0,-1"
       position="151.87829,-444.21812" />
    <sodipodi:guide
       id="guide878"
       orientation="1,0"
       position="140.89914,-112.0987" />
  </sodipodi:namedview>
  <metadata
     id="metadata5">
    <rdf:RDF>
      <cc:Work
         rdf:about="">
        <dc:format>image/svg+xml</dc:format>
        <dc:type
           rdf:resource="http://purl.org/dc/dcmitype/StillImage" />
        <dc:title></dc:title>
      </cc:Work>
    </rdf:RDF>
  </metadata>
  <rect
     y="-137.33533"
     x="116.30513"
     height="388.55954"
     width="865.17291"
     id="rect862"
     style="opacity:1;fill:#4c4694;fill-opacity:1;stroke:#4c4694;stroke-width:0;stroke-linecap:round;stroke-linejoin:bevel;stop-opacity:1" />
  <g
     transform="matrix(0.8903403,0,0,0.8903403,329.30403,-314.31425)"
     id="g885"
     style="opacity:1;stop-opacity:1">
    <text
       xml:space="preserve"
       style="font-size:148.828px;line-height:1.25;font-family:sans-serif;-inkscape-font-specification:sans-serif;fill:#ffffbe;fill-opacity:1;stroke-width:0.775144"
       x="128.75389"
       y="555.48456"
       id="text868"><tspan
         id="tspan866"
         sodipodi:role="line"
         x="128.75389"
         y="555.48456"
         style="font-style:normal;font-variant:normal;font-weight:normal;font-stretch:normal;font-family:Arial;-inkscape-font-specification:Arial;fill:#ffffbe;fill-opacity:1;stroke-width:0.775144">IT SO!</tspan></text>
    <path
       sodipodi:nodetypes="cccccccccccccccccccccsscccsccccsccccccc"
       inkscape:connector-curvature="0"
       d="m -27.718871,529.45907 c -17.630882,9.20933 -44.016519,20.6108 -52.991205,25.50487 14.518151,1.43117 32.670968,0.96386 55.604543,3.61261 v 0 0 c -6.54946,-4.86821 -14.288233,-7.1872 -19.314099,-11.36529 7.030799,-2.78971 22.714146,-7.51044 30.31384,-10.08405 5.0099296,1.81998 9.7204621,3.40364 15.5792648,5.83687 -5.1277793,3.43415 -12.9771188,8.91906 -20.3418518,13.85925 14.6450459,-2.42834 39.733059,-4.88969 57.318831,-7.1909 L 3.8936461,530.42589 C 29.284433,520.49097 56.545053,509.19065 77.146895,497.77581 60.473711,479.71981 46.063625,463.36166 32.032706,445.51652 15.68367,424.72301 -2.5725447,388.81062 -6.9204957,376.31069 c 18.0846407,6.5854 24.3753697,7.63172 50.7994397,13.00968 14.316781,-15.72865 25.658077,-27.37772 39.892187,-44.08634 20.205089,-3.80374 83.364509,13.69751 7.042123,-21.59065 h 0.0013 c -17.4708,-8.07776 -7.295649,8.85939 -52.564542,44.79247 -21.117279,-4.75977 -52.834527,-11.0227 -68.579643,-17.36773 -11.475007,-4.62429 23.9627404,-11.64632 19.952262,-38.67545 -3.444838,-23.21667 -29.551844,-37.2276 -53.498992,-36.99606 -28.838751,0.27883 -52.794819,19.71716 -39.893299,47.38259 15.214061,32.62442 52.637966,21.40422 37.626522,34.23049 -14.901268,12.73219 -51.899632,39.75247 -71.096252,56.45977 12.89115,8.85439 30.91579,20.77706 54.467301,32.04062 0.717648,10.4171 -4.269242,18.51896 -3.859022,26.95838 0.41022,8.43939 25.18474,-21.94468 29.281445,-28.34481 2.018899,-3.15418 -36.578949,-24.15253 -45.108374,-30.85313 14.074158,-12.48473 27.719951,-23.16666 45.453348,-32.99655 9.098762,12.78545 14.642928,20.12468 20.85085,36.53094 3.256393,8.60581 11.686567,24.20588 2.333288,34.49301 -19.551113,21.50305 -31.233728,30.6687 -49.247452,48.2365 z m -14.05885,-30.91079 c 14.019999,-10.44919 21.931197,-18.79731 42.8706599,-32.91203 14.6128561,11.55312 24.4237191,20.15503 36.5362531,30.79412 -9.5976,4.98246 -27.8862888,14.45218 -47.1399166,24.47067 z"
       style="opacity:1;fill:#ffffbe;fill-opacity:1;stroke:#000000;stroke-width:0;stroke-linecap:round;stroke-linejoin:bevel;stroke-miterlimit:4;stroke-dasharray:none;stroke-dashoffset:0;stroke-opacity:1;stop-opacity:1"
       id="path1009" />
    <text
       id="text847"
       y="384.85345"
       x="133.4437"
       style="font-size:148.828px;line-height:1.25;font-family:sans-serif;-inkscape-font-specification:sans-serif;fill:#ffffbe;fill-opacity:1;stroke-width:0.775144"
       xml:space="preserve"><tspan
         style="font-style:normal;font-variant:normal;font-weight:normal;font-stretch:normal;font-family:Arial;-inkscape-font-specification:Arial;fill:#ffffbe;fill-opacity:1;stroke-width:0.775144"
         y="384.85345"
         x="133.4437"
         sodipodi:role="line"
         id="tspan860">SHAKE</tspan></text>
  </g>
</svg>
