<?xml version="1.0" encoding="UTF-8" standalone="no"?>
<svg
   xmlns:dc="http://purl.org/dc/elements/1.1/"
   xmlns:cc="http://creativecommons.org/ns#"
   xmlns:rdf="http://www.w3.org/1999/02/22-rdf-syntax-ns#"
   xmlns:svg="http://www.w3.org/2000/svg"
   xmlns="http://www.w3.org/2000/svg"
   xmlns:sodipodi="http://sodipodi.sourceforge.net/DTD/sodipodi-0.dtd"
   xmlns:inkscape="http://www.inkscape.org/namespaces/inkscape"
   inkscape:version="1.0beta1 (32d4812, 2019-09-19)"
   inkscape:export-ydpi="40.709999"
   inkscape:export-xdpi="40.709999"
   inkscape:export-filename="/Users/jonathanslate/shakitso-logo-border.png"
   sodipodi:docname="shake-it-so-logo.svg"
   width="187.88875mm"
   height="275.68683mm"
   viewBox="0 0 187.88875 275.68683"
   version="1.1"
   id="svg8">
  <defs
     id="defs840" />
  <sodipodi:namedview
     inkscape:current-layer="svg8"
     inkscape:window-maximized="0"
     inkscape:window-y="23"
     inkscape:window-x="0"
     inkscape:cy="560"
     inkscape:cx="400"
     inkscape:zoom="0.35"
     showgrid="false"
     id="namedview838"
     inkscape:window-height="907"
     inkscape:window-width="1600"
     inkscape:pageshadow="2"
     inkscape:pageopacity="0"
     guidetolerance="10"
     gridtolerance="10"
     objecttolerance="10"
     borderopacity="1"
     inkscape:document-rotation="0"
     bordercolor="#666666"
     pagecolor="#ffffff" />
  <metadata
     id="metadata5">
    <rdf:RDF>
      <cc:Work
         rdf:about="">
        <dc:format>image/svg+xml</dc:format>
        <dc:type
           rdf:resource="http://purl.org/dc/dcmitype/StillImage" />
        <dc:title />
      </cc:Work>
    </rdf:RDF>
  </metadata>
  <g
     style="stroke:#000000;stroke-width:0.529167;stroke-miterlimit:4;stroke-dasharray:none;stroke-opacity:1"
     id="layer1"
     transform="matrix(0.54365087,0,0,0.54365087,-428.82974,-32.644583)">
    <g
       style="opacity:1;fill:#ffff8d;fill-opacity:1;stroke:#000000;stroke-width:0.529167;stroke-miterlimit:4;stroke-dasharray:none;stroke-opacity:1"
       id="g1011"
       transform="translate(-186.61446,213.16212)">
      <path
         inkscape:connector-curvature="0"
         d="m 1132.4845,209.70591 c -14.2327,-10.53771 -30.3382,-22.36407 -39.4584,-29.28725 12.7038,-17.0212 20.9427,-25.90168 34.7307,-46.7357 6.5962,-9.96704 0.651,-25.08175 -1.6455,-33.41981 -4.378,-15.895794 -8.2879,-23.006677 -14.7046,-35.39431 -12.5061,9.52404 -22.1295,19.873609 -32.055,31.969906 6.0152,6.492104 33.2355,26.837134 31.8117,29.893164 -2.8891,6.20099 -20.3608,35.63971 -20.6501,27.46289 -0.2893,-8.17682 3.2276,-16.02662 2.7215,-26.11959 -16.6092,-10.91312 -29.3207,-22.46481 -38.4119,-31.043731 13.538,-16.187472 39.6303,-42.367039 50.1391,-54.703076 10.5865,-12.427222 -15.8059,-1.556115 -26.5353,-33.165472 -9.0985,-26.804656 7.796,-45.638191 28.1339,-45.908353 16.8882,-0.224336 35.2996,13.350666 37.729,35.84499628 2.8283,26.18815572 -22.1634,32.99170572 -14.0709,37.47209672 11.1039,6.14762 33.4718,12.215679 48.3643,16.82738 31.9249,-34.815082 24.7491,-51.2252489 37.07,-43.398828 h -9e-4 c 53.8247,34.190218 9.2829,17.233495 -4.9663,20.918881 -10.0383,16.188765 -18.0365,27.475379 -28.1331,42.714657 -18.635,-5.210633 -23.0714,-6.22438 -35.8252,-12.604899 3.0663,12.111001 15.9411,46.906038 27.4709,67.052578 9.895,17.28993 20.0574,33.13911 31.8158,50.63331 -23.3445,17.77019 -53.0779,34.88471 -83.8943,48.61715 4.2607,4.24492 7.3074,5.96884 11.783,10.29194 -16.1734,-2.56636 -22.0867,-3.7837 -32.3253,-5.17034 15.3657,-11.51181 61.3856,-44.21417 76.5676,-55.04233 -8.5421,-10.30806 -15.461,-18.64234 -25.7664,-29.83599 -14.7671,13.67556 -20.3463,21.76394 -30.2336,31.88802 8.4726,7.63384 14.8306,12.78842 23.5405,21.11348 z m 22.9753,1.50689 c 9.0662,8.71035 13.2818,12.43528 17.2475,16.56424 -11.5424,2.42644 -21.6422,5.00801 -31.9703,7.55764 4.4775,-5.37695 7.1478,-7.93567 10.191,-11.85345 -2.1261,-1.57021 -3.0443,-2.3123 -8.1392,-6.0825 z"
         style="opacity:1;fill:#ffffbe;fill-opacity:1;stroke:#000000;stroke-width:0.529167;stroke-linecap:round;stroke-linejoin:bevel;stroke-miterlimit:4;stroke-dasharray:none;stroke-dashoffset:0;stroke-opacity:1"
         id="path1009" />
    </g>
  </g>
</svg>
